<svg version="1.1" id="Layer_1" xmlns="http://www.w3.org/2000/svg" xmlns:xlink="http://www.w3.org/1999/xlink" x="0px" y="0px" viewBox="0 0 51.8 83.5" style="enable-background:new 0 0 51.8 83.5;" xml:space="preserve">
 <style type="text/css">
  .st0{fill:#005F86;}
 </style>
 <path class="st0" d="M41.9,52.4h-32l-1.2,3.8h8.5l1.6,5.3h14l1.6-5.3H43L41.9,52.4z M15.1,30.9c-2.5,3.4-1.7,8.1,1.7,10.6l7.7,5.6
	c0.8,0.6,1,1.8,0.4,2.6c0,0,0,0,0,0l1.1,0.8l4.1-5.6c0.9-1.3,1.4-2.8,1.5-4.4c0-0.4,0-0.8-0.1-1.2c-0.3-2-1.4-3.8-3-4.9l-7.7-5.6
	c-0.4-0.3-0.7-0.7-0.8-1.2c0-0.1,0-0.2,0-0.3c0-0.4,0.1-0.8,0.4-1.1l-1.1-0.8C19.1,25.3,15.1,30.9,15.1,30.9z M19.7,8.5
	c-1.4,1.9-2.1,4.1-2.1,6.4c0,0.6,0,1.2,0.1,1.8c0.4,2.9,2,5.5,4.4,7.2l9.6,7c1.3,0.9,2.1,2.3,2.3,3.8c0.1,0.3,0.1,0.6,0.1,0.9
	c0,1.2-0.4,2.4-1.1,3.4l0.9,0.7l7.6-10.5c3.5-4.9,2.4-11.8-2.5-15.3L27.5,5.4c-0.7-0.5-1.2-1.3-1.4-2.2c-0.1-0.9,0.1-1.8,0.6-2.5
	L25.8,0C25.8,0,19.7,8.5,19.7,8.5z M0,64.7h8.8c1.8-0.1,3.6,0.5,4.9,1.7c0.9,0.8,1.3,2,1.3,3.2v0.1c0,1.7-0.9,3.3-2.5,4.1
	c2.2,0.8,3.5,2.1,3.5,4.7c0,3.5-2.8,5.2-7.1,5.2H0C0,83.5,0,64.7,0,64.7z M7.9,72.3c1.8,0,3-0.6,3-2c0-1.2-1-2-2.7-2H4.1v4H7.9z
	 M9,79.9c1.8,0,2.9-0.7,2.9-2v-0.1c0-1.3-0.9-2-3.1-2H4.1V80C4.1,80,9,79.9,9,79.9z M17.9,64.7h8.8c1.8-0.1,3.6,0.5,4.9,1.7
	c0.9,0.8,1.3,2,1.3,3.2v0.1c0,1.7-0.9,3.3-2.5,4.1c2.2,0.8,3.5,2.1,3.5,4.7c0,3.5-2.8,5.2-7.1,5.2h-9V64.7z M25.8,72.3
	c1.8,0,3-0.6,3-2c0-1.2-1-2-2.7-2h-4.2v4H25.8z M26.9,79.9c1.8,0,2.9-0.7,2.9-2v-0.1c0-1.3-0.9-2-3.1-2h-4.9V80
	C21.9,80,26.9,79.9,26.9,79.9z M35.8,64.7h8.8c1.8-0.1,3.6,0.5,4.9,1.7c0.9,0.8,1.3,2,1.3,3.2v0.1c0,1.7-0.9,3.3-2.5,4.1
	c2.2,0.8,3.5,2.1,3.5,4.7c0,3.5-2.8,5.2-7.1,5.2h-9C35.7,83.5,35.7,64.7,35.8,64.7z M43.6,72.3c1.8,0,3-0.6,3-2c0-1.2-1-2-2.7-2
	h-4.1v4H43.6z M44.7,79.9c1.8,0,3-0.7,3-2v-0.1c0-1.3-1-2-3.1-2h-4.8V80C39.8,80,44.7,79.9,44.7,79.9z">
 </path>
</svg>