<?xml version="1.0" encoding="utf-8"?>
<!-- Generator: Adobe Illustrator 16.0.0, SVG Export Plug-In . SVG Version: 6.00 Build 0)  -->
<!DOCTYPE svg PUBLIC "-//W3C//DTD SVG 1.1//EN" "http://www.w3.org/Graphics/SVG/1.1/DTD/svg11.dtd">
<svg version="1.1" id="Layer_1" xmlns="http://www.w3.org/2000/svg" xmlns:xlink="http://www.w3.org/1999/xlink" x="0px" y="0px"
	 width="242px" height="194px" viewBox="0 0 242 194" enable-background="new 0 0 242 194" xml:space="preserve">

<path fill-rule="evenodd" clip-rule="evenodd" d="M103.071,109.213c-0.198,1.344-0.514,2.887-1.622,3.124
	c-0.593,0.118-0.87,0.118-1.187,0.118c-0.396,0-0.632,0.079-0.632,0.277c0,0.355,0.316,0.435,0.711,0.435
	c1.266,0,3.164-0.118,3.916-0.118c0.711,0,2.492,0.118,4.153,0.118c0.593,0,0.949-0.079,0.949-0.435
	c0-0.198-0.277-0.277-0.594-0.277c-0.396,0-0.949-0.039-1.661-0.197c-0.673-0.158-1.187-0.515-1.187-1.266
	c0-0.633,0.039-1.146,0.118-1.859l2.057-15.425h0.158c1.384,2.967,3.758,7.634,4.114,8.464c0.474,1.107,3.599,7.159,4.548,8.979
	c0.632,1.187,1.028,1.978,1.384,1.978c0.356,0,0.554-0.356,1.463-2.215l8.622-17.64h0.158l2.373,17.204
	c0.158,1.107,0.04,1.622-0.197,1.701c-0.277,0.118-0.436,0.237-0.436,0.436c0,0.236,0.237,0.354,1.146,0.435
	c1.582,0.118,7.041,0.198,8.029,0.198c0.554,0,1.028-0.119,1.028-0.436c0-0.237-0.277-0.277-0.633-0.277
	c-0.514,0-1.305-0.039-2.452-0.396c-1.187-0.355-1.582-1.502-1.938-3.994l-3.599-24.205c-0.119-0.831-0.356-1.227-0.712-1.227
	s-0.554,0.316-0.87,0.95l-10.758,22.267l-10.797-21.99c-0.514-1.028-0.751-1.227-1.067-1.227c-0.317,0-0.554,0.356-0.672,1.028
	L103.071,109.213z M82.467,94.737c0-6.012,0-7.119,0.079-8.385c0.079-1.384,0.396-2.057,1.464-2.254
	c0.475-0.079,1.107-0.119,1.542-0.119c0.474,0,0.711-0.079,0.711-0.356s-0.276-0.355-0.83-0.355c-1.543,0-4.43,0.119-5.379,0.119
	c-1.067,0-3.559-0.119-5.418-0.119c-0.593,0-0.87,0.079-0.87,0.355s0.238,0.356,0.672,0.356c0.515,0,0.989,0.04,1.306,0.119
	c1.305,0.277,1.621,0.91,1.7,2.254c0.08,1.266,0.08,2.373,0.08,8.385v6.961c0,3.639,0,6.764-0.198,8.425
	c-0.158,1.146-0.356,2.017-1.147,2.175c-0.355,0.08-0.831,0.158-1.424,0.158c-0.475,0-0.632,0.119-0.632,0.316
	c0,0.277,0.277,0.396,0.791,0.396c0.791,0,1.819-0.079,2.729-0.079c0.95-0.039,1.819-0.039,2.255-0.039
	c1.621,0,3.045,0.039,4.825,0.118c1.78,0.04,3.837,0.119,6.685,0.119c2.056,0,2.254-0.198,2.492-1.067
	c0.316-1.147,0.593-4.114,0.593-4.549c0-0.475-0.039-0.673-0.316-0.673c-0.317,0-0.396,0.238-0.436,0.594
	c-0.079,0.751-0.553,1.859-1.028,2.373c-0.988,1.068-2.531,1.107-4.627,1.107c-3.085,0-4.113-0.276-4.786-0.87
	c-0.831-0.712-0.831-3.441-0.831-8.504V94.737z M48.14,101.105c-0.158,0-0.198-0.119-0.158-0.277l3.639-9.689
	c0.04-0.159,0.119-0.356,0.237-0.356s0.158,0.198,0.198,0.356l3.56,9.729c0.039,0.118,0,0.237-0.198,0.237H48.14z M56.169,103.083
	c0.198,0,0.316,0.079,0.396,0.276l3.164,8.147c0.198,0.475-0.079,0.831-0.356,0.91c-0.396,0.039-0.554,0.118-0.554,0.355
	c0,0.277,0.475,0.277,1.187,0.316c3.164,0.079,6.051,0.079,7.475,0.079c1.463,0,1.819-0.079,1.819-0.396
	c0-0.276-0.197-0.316-0.514-0.316c-0.474,0-1.068-0.039-1.661-0.158c-0.831-0.197-1.978-0.751-3.481-4.311
	c-2.531-6.012-8.859-21.832-9.809-24.008c-0.396-0.91-0.633-1.266-0.989-1.266c-0.396,0-0.632,0.436-1.107,1.582l-9.927,24.521
	c-0.792,1.979-1.542,3.322-3.362,3.561c-0.316,0.039-0.87,0.078-1.226,0.078c-0.316,0-0.474,0.079-0.474,0.316
	c0,0.316,0.236,0.396,0.75,0.396c2.057,0,4.232-0.118,4.667-0.118c1.226,0,2.926,0.118,4.192,0.118c0.435,0,0.672-0.079,0.672-0.396
	c0-0.237-0.119-0.316-0.593-0.316h-0.594c-1.226,0-1.582-0.514-1.582-1.226c0-0.475,0.198-1.424,0.594-2.413l2.135-5.418
	c0.079-0.237,0.158-0.316,0.356-0.316H56.169z M17.768,101.698c0,3.639,0,6.764-0.198,8.425c-0.158,1.146-0.356,2.017-1.147,2.175
	c-0.355,0.08-0.83,0.158-1.424,0.158c-0.474,0-0.632,0.119-0.632,0.316c0,0.277,0.277,0.396,0.791,0.396
	c1.582,0,4.074-0.118,4.983-0.118c1.028,0,3.52,0.118,6.13,0.118c0.436,0,0.752-0.118,0.752-0.396c0-0.197-0.198-0.316-0.633-0.316
	c-0.593,0-1.463-0.078-2.017-0.158c-1.187-0.158-1.424-1.028-1.542-2.136c-0.198-1.7-0.198-4.825-0.198-8.464v-15.82
	c0-0.436,0.119-0.673,0.316-0.752c0.356-0.118,0.949-0.158,1.542-0.158c0.91,0,2.531,0.237,3.955,1.542
	c2.215,1.978,2.333,4.628,2.333,5.933c0,4.034-3.085,6.526-5.3,6.526c-0.831,0-1.107,0.118-1.107,0.436
	c0,0.276,0.277,0.315,0.475,0.355c0.198,0.039,0.633,0.039,0.831,0.039c5.617,0,9.729-3.955,9.729-9.571
	c0-2.096-1.107-3.876-1.978-4.706c-0.633-0.594-2.413-2.254-7.356-2.254c-1.819,0-4.113,0.119-5.735,0.119
	c-1.107,0-3.599-0.119-5.695-0.119c-0.593,0-0.87,0.079-0.87,0.355s0.237,0.356,0.672,0.356c0.553,0,1.226,0.04,1.542,0.119
	c1.305,0.277,1.621,0.91,1.701,2.254c0.079,1.266,0.079,2.373,0.079,8.385V101.698z"/>
<path fill-rule="evenodd" clip-rule="evenodd" fill="#ffffff" d="M219.755,99.454c0-0.834,0-1.705,0.013-2.066
	c0-0.125,0.037-0.174,0.137-0.211c0.087-0.05,0.448-0.075,0.672-0.075c0.859,0,2.054,0.112,3.063,1.008
	c0.484,0.424,1.021,1.295,1.021,2.639c0,1.096-0.225,2.041-0.934,2.626c-0.66,0.548-1.395,0.722-2.39,0.722
	c-0.859,0-1.295-0.224-1.432-0.423c-0.087-0.112-0.112-0.485-0.125-0.747c-0.012-0.211-0.024-1.02-0.024-2.141V99.454z
	 M218.286,101.482c0,0.971,0,1.805-0.05,2.253c-0.037,0.312-0.1,0.51-0.323,0.56c-0.1,0.025-0.225,0.037-0.386,0.037
	c-0.138,0-0.175,0.063-0.175,0.112c0,0.075,0.075,0.112,0.212,0.112c0.224,0,0.498-0.013,0.759-0.024
	c0.262,0,0.498-0.013,0.623-0.013c0.273,0,0.672,0.024,1.107,0.063c0.436,0.024,0.908,0.062,1.307,0.062
	c2.017,0,3.174-0.746,3.672-1.244c0.622-0.61,1.194-1.618,1.194-2.95c0-1.257-0.485-2.141-1.032-2.688
	c-1.195-1.207-3.037-1.207-4.406-1.207c-0.66,0-1.443,0.024-1.78,0.024c-0.311,0-1.008-0.024-1.58-0.024
	c-0.162,0-0.249,0.024-0.249,0.099s0.074,0.112,0.187,0.112c0.162,0,0.349,0.012,0.436,0.037c0.349,0.1,0.448,0.211,0.474,0.572
	c0.012,0.336,0.012,0.635,0.012,2.24V101.482z M207.183,99.615c0-1.605,0-1.904,0.024-2.24c0.024-0.373,0.112-0.522,0.411-0.572
	c0.124-0.025,0.298-0.037,0.423-0.037c0.137,0,0.199-0.038,0.199-0.112s-0.075-0.099-0.236-0.099c-0.424,0-1.319,0.024-1.581,0.024
	c-0.299,0-0.995-0.024-1.506-0.024c-0.162,0-0.236,0.024-0.236,0.099s0.063,0.112,0.187,0.112c0.137,0,0.273,0.012,0.361,0.037
	c0.349,0.1,0.447,0.211,0.473,0.572c0.013,0.336,0.013,0.635,0.013,2.24v1.867c0,0.971,0,1.805-0.05,2.253
	c-0.038,0.312-0.1,0.51-0.324,0.56c-0.1,0.025-0.224,0.037-0.386,0.037c-0.137,0-0.174,0.063-0.174,0.112
	c0,0.075,0.074,0.112,0.212,0.112c0.224,0,0.497-0.013,0.759-0.024c0.261,0,0.498-0.013,0.622-0.013
	c0.448,0,0.909,0.013,1.456,0.024c0.548,0.025,1.183,0.038,1.967,0.038c0.572,0,0.622-0.05,0.697-0.287
	c0.087-0.311,0.161-1.095,0.161-1.22c0-0.124-0.024-0.236-0.1-0.236c-0.087,0-0.111,0.063-0.124,0.162
	c-0.024,0.199-0.137,0.498-0.274,0.635c-0.273,0.286-0.696,0.299-1.281,0.299c-0.847,0-1.27-0.063-1.456-0.225
	c-0.236-0.198-0.236-0.871-0.236-2.228V99.615z M194.945,101.482c0,1.021,0,1.867-0.05,2.303c-0.037,0.311-0.1,0.46-0.323,0.51
	c-0.1,0.025-0.225,0.037-0.386,0.037c-0.137,0-0.175,0.063-0.175,0.112c0,0.075,0.075,0.112,0.212,0.112
	c0.436,0,1.183-0.037,1.432-0.037c0.299,0,1.045,0.037,1.767,0.037c0.125,0,0.212-0.037,0.212-0.112c0-0.05-0.05-0.112-0.174-0.112
	c-0.162,0-0.411-0.012-0.561-0.037c-0.323-0.05-0.398-0.211-0.436-0.498c-0.05-0.447-0.05-1.294-0.05-2.314v-1.867
	c0-1.605,0-1.904,0.025-2.24c0.024-0.373,0.111-0.522,0.41-0.572c0.124-0.025,0.212-0.037,0.324-0.037
	c0.111,0,0.174-0.025,0.174-0.125c0-0.063-0.087-0.087-0.225-0.087c-0.423,0-1.132,0.024-1.405,0.024
	c-0.312,0-1.059-0.024-1.469-0.024c-0.175,0-0.262,0.024-0.262,0.087c0,0.1,0.063,0.125,0.174,0.125c0.137,0,0.274,0.012,0.398,0.05
	c0.236,0.075,0.349,0.199,0.374,0.56c0.012,0.336,0.012,0.635,0.012,2.24V101.482z M179.561,101.17c0,1.531,0.436,2.315,0.995,2.801
	c0.797,0.697,1.93,0.722,2.502,0.722c0.709,0,1.543-0.111,2.314-0.759c0.922-0.76,1.046-2.004,1.046-3.187v-1.133
	c0-1.605,0.013-1.904,0.025-2.24c0.024-0.373,0.099-0.522,0.397-0.572c0.137-0.025,0.199-0.037,0.324-0.037
	c0.124,0,0.187-0.038,0.187-0.112s-0.075-0.099-0.225-0.099c-0.423,0-1.157,0.024-1.281,0.024c-0.013,0-0.747-0.024-1.307-0.024
	c-0.149,0-0.225,0.024-0.225,0.099s0.063,0.112,0.187,0.112c0.125,0,0.312,0.012,0.398,0.037c0.349,0.1,0.436,0.211,0.461,0.572
	c0.012,0.336,0.024,0.635,0.024,2.24v1.332c0,1.083-0.024,2.004-0.635,2.576c-0.436,0.423-0.995,0.561-1.469,0.561
	c-0.373,0-0.896-0.037-1.381-0.424c-0.535-0.423-0.834-1.021-0.834-2.563v-1.481c0-1.605,0-1.904,0.024-2.24
	c0.025-0.373,0.112-0.522,0.398-0.572c0.137-0.025,0.199-0.037,0.323-0.037c0.112,0,0.175-0.038,0.175-0.112
	s-0.075-0.099-0.236-0.099c-0.398,0-1.133,0.024-1.407,0.024c-0.323,0-1.058-0.024-1.643-0.024c-0.161,0-0.236,0.024-0.236,0.099
	s0.063,0.112,0.187,0.112c0.149,0,0.336,0.012,0.424,0.037c0.348,0.1,0.447,0.199,0.473,0.572c0.024,0.336,0.013,0.635,0.013,2.24
	V101.17z M167.784,100.499c0-0.062,0.024-0.074,0.063-0.074h0.473c0.423,0,0.722,0.111,0.946,0.273
	c0.821,0.56,1.032,1.395,1.032,1.88c0,1.17-0.759,1.493-1.344,1.493c-0.249,0-0.498-0.013-0.784-0.125
	c-0.349-0.137-0.386-0.348-0.386-1.045V100.499z M167.784,97.238c0-0.112,0.024-0.162,0.1-0.174
	c0.112-0.025,0.323-0.025,0.473-0.025c0.946,0,1.369,0.884,1.369,1.593c0,0.511-0.212,0.896-0.498,1.121
	c-0.187,0.149-0.497,0.187-0.858,0.187c-0.249,0-0.411-0.013-0.511-0.037c-0.037-0.013-0.074-0.025-0.074-0.112V97.238z
	 M166.365,101.482c0,0.971,0,1.805-0.05,2.253c-0.037,0.312-0.1,0.51-0.323,0.56c-0.1,0.025-0.225,0.037-0.386,0.037
	c-0.138,0-0.175,0.063-0.175,0.112c0,0.075,0.075,0.112,0.212,0.112c0.224,0,0.497-0.013,0.759-0.024
	c0.262,0,0.498-0.013,0.623-0.013c0.174,0,0.56,0.013,0.933,0.024c0.374,0.025,0.747,0.038,0.871,0.038
	c2.017,0,2.913-1.171,2.913-2.303c0-1.245-1.12-2.004-2.017-2.29c0.622-0.398,1.232-1.033,1.232-1.854
	c0-0.561-0.349-1.581-2.327-1.581c-0.374,0-1.096,0.024-1.644,0.024c-0.211,0-0.908-0.024-1.48-0.024
	c-0.162,0-0.249,0.024-0.249,0.099s0.074,0.112,0.187,0.112c0.162,0,0.349,0.012,0.436,0.037c0.349,0.1,0.448,0.211,0.473,0.572
	c0.013,0.336,0.013,0.635,0.013,2.24V101.482z"/>
<path fill-rule="evenodd" clip-rule="evenodd" fill="#ffffffI don't " d="M152.34,56.233c-0.317,0-0.574,18.7-0.574,41.767
	c0,23.067,0.257,41.767,0.574,41.767s0.574-18.699,0.574-41.767C152.914,74.933,152.657,56.233,152.34,56.233"/>
</svg>
